<?xml version="1.0" encoding="iso-8859-1"?>
<!-- Generator: Adobe Illustrator 19.0.0, SVG Export Plug-In . SVG Version: 6.00 Build 0)  -->
<svg xmlns="http://www.w3.org/2000/svg" xmlns:xlink="http://www.w3.org/1999/xlink" version="1.1" id="Layer_1" x="0px" y="0px" viewBox="0 0 512 512" style="enable-background:new 0 0 512 512;" xml:space="preserve" width="512px" height="512px">
<g>
	<g>
		<path d="M449.362,43.574H8.171c-2.167,0-4.244,0.861-5.778,2.393c-2.392,2.393-2.392,3.952-2.392,9.753L0,405.787    c0,4.512,3.657,8.17,8.17,8.17h256.007c4.513,0,8.17-3.658,8.17-8.17s-3.658-8.17-8.17-8.17H28.433L192,240.108l31.099,29.947    c1.582,1.524,3.624,2.286,5.667,2.286c2.043,0,4.085-0.761,5.667-2.286l31.099-29.948l20.735,19.967    c1.585,1.526,3.626,2.285,5.666,2.285c2.143,0,4.283-0.838,5.886-2.503c3.13-3.25,3.032-8.422-0.218-11.552l-20.289-19.539    l163.88-157.811v149.648c0,4.512,3.657,8.17,8.17,8.17s8.17-3.658,8.17-8.17V51.745C457.532,47.233,453.875,43.574,449.362,43.574    z M16.34,386.577c0-61.669,0-253.993,0.001-315.622l163.88,157.81L16.34,386.577z M228.766,252.828L28.433,59.915h400.665    L228.766,252.828z" fill="#fff000"/>
	</g>
</g>
<g>
	<g>
		<path d="M394.894,234.213c-64.572,0-117.106,52.533-117.106,117.106s52.534,117.106,117.106,117.106S512,415.892,512,351.319    S459.466,234.213,394.894,234.213z M394.894,452.085c-55.563,0-100.766-45.203-100.766-100.766s45.203-100.766,100.766-100.766    c55.563,0,100.766,45.203,100.766,100.766S450.457,452.085,394.894,452.085z" fill="#cccddd"/>
	</g>
</g>
<g>
	<g>
		<path d="M449.362,326.809h-29.957v-29.957c0-13.516-10.996-24.511-24.511-24.511s-24.511,10.995-24.511,24.511v29.957h-29.957    c-13.515,0-24.511,10.995-24.511,24.511s10.996,24.511,24.511,24.511h29.957v29.957c0,13.516,10.996,24.511,24.511,24.511    s24.511-10.995,24.511-24.511V375.83h29.957c13.515,0,24.511-10.995,24.511-24.511S462.876,326.809,449.362,326.809z     M449.362,359.489h-38.128c-4.513,0-8.17,3.658-8.17,8.17v38.128c0,4.506-3.665,8.17-8.17,8.17c-4.506,0-8.17-3.665-8.17-8.17    V367.66c0-4.512-3.657-8.17-8.17-8.17h-38.128c-4.506,0-8.17-3.665-8.17-8.17s3.665-8.17,8.17-8.17h38.128    c4.513,0,8.17-3.658,8.17-8.17v-38.128c0-4.506,3.665-8.17,8.17-8.17c4.506,0,8.17,3.665,8.17,8.17v38.128    c0,4.512,3.657,8.17,8.17,8.17h38.128c4.506,0,8.17,3.665,8.17,8.17S453.867,359.489,449.362,359.489z" fill="#cccddd"/>
	</g>
</g>
<g>
</g>
<g>
</g>
<g>
</g>
<g>
</g>
<g>
</g>
<g>
</g>
<g>
</g>
<g>
</g>
<g>
</g>
<g>
</g>
<g>
</g>
<g>
</g>
<g>
</g>
<g>
</g>
<g>
</g>
</svg>
